<svg xmlns="http://www.w3.org/2000/svg" width="25" height="26" viewBox="0 0 32 33" fill="none">
  <path d="M21.7083 25.7931C21.8012 25.886 21.8749 25.9963 21.9252 26.1177C21.9755 26.2391 22.0013 26.3692 22.0013 26.5006C22.0013 26.632 21.9755 26.7621 21.9252 26.8835C21.8749 27.0048 21.8012 27.1151 21.7083 27.2081C21.6154 27.301 21.5051 27.3747 21.3837 27.4249C21.2623 27.4752 21.1322 27.5011 21.0008 27.5011C20.8694 27.5011 20.7393 27.4752 20.6179 27.4249C20.4965 27.3747 20.3862 27.301 20.2933 27.2081L10.2933 17.2081C10.2003 17.1152 10.1266 17.0049 10.0762 16.8835C10.0259 16.7621 10 16.632 10 16.5006C10 16.3691 10.0259 16.239 10.0762 16.1176C10.1266 15.9962 10.2003 15.8859 10.2933 15.7931L20.2933 5.79306C20.4809 5.60542 20.7354 5.5 21.0008 5.5C21.2662 5.5 21.5206 5.60542 21.7083 5.79306C21.8959 5.9807 22.0013 6.23519 22.0013 6.50056C22.0013 6.76592 21.8959 7.02042 21.7083 7.20806L12.4145 16.5006L21.7083 25.7931Z" fill="black"/>
</svg>