<?xml version="1.0" encoding="UTF-8"?>
<!-- Generator: Adobe Illustrator 21.1.0, SVG Export Plug-In . SVG Version: 6.00 Build 0)  -->
<svg version="1.1" id="Layer_1" xmlns="http://www.w3.org/2000/svg" xmlns:xlink="http://www.w3.org/1999/xlink" x="0px" y="0px" viewBox="0 0 109 109" style="enable-background:new 0 0 109 109;" xml:space="preserve">
<style type="text/css">
	.st0{fill:#C03B00;}
</style>
<title>support-icon</title>
<g id="Expanded">
	<path class="st0" d="M72.7,63.6c-0.3,0-0.6-0.1-0.9-0.2c-0.8-0.4-1.4-1.2-1.4-2.1V45.4h-6.8c-1.3,0-2.3-1-2.3-2.3   c0-1.3,1-2.3,2.3-2.3h9.1c1.3,0,2.3,1,2.3,2.3l0,0v12.7l14.3-14.3c0.4-0.4,1-0.7,1.6-0.7h13.6V4.5H40.9v15.9c0,1.3-1,2.3-2.3,2.3   c-1.3,0-2.3-1-2.3-2.3c0,0,0,0,0,0V2.3c0-1.3,1-2.3,2.3-2.3l0,0h68.1c1.3,0,2.3,1,2.3,2.3l0,0v40.9c0,1.3-1,2.3-2.3,2.3l0,0h-15   L74.2,62.9C73.8,63.3,73.3,63.6,72.7,63.6z M72.7,109H0v-9c0-5.5,3.5-10.4,8.7-12.3l16.5-5.9v-8.1h4.5V85l-19.5,7   c-3.4,1.2-5.6,4.4-5.6,8v4.5h63.6V100c0-3.6-2.3-6.8-5.6-8L43,85V73h4.5v8.8L64,87.6c5.2,1.9,8.6,6.8,8.6,12.3L72.7,109L72.7,109z"/>
	<path class="st0" d="M35.9,78.5c-11.1,0-20.2-10.7-20.2-23.8s9.1-23.8,20.2-23.8s20.2,10.7,20.2,23.8S47,78.5,35.9,78.5z    M35.9,35.5c-8.6,0-15.7,8.6-15.7,19.2S27.2,74,35.9,74s15.7-8.6,15.7-19.3S44.5,35.5,35.9,35.5z"/>
	<path class="st0" d="M49,55.5c-4.3,0-7.7-1.8-10.5-5.6c-3.6,3.3-8.4,5.2-13.3,5.4c-2.8,0-5.5-0.6-8-1.9l2.1-4   c1.8,1,3.8,1.4,5.9,1.4c4.5,0,9.9-2.7,11.5-5.7l1.9-3.7l2.1,3.6c3,5.2,6,6.8,11,5.8c0.5-0.1,0.9-0.1,1.4-0.1c0.2,0,0.3,0,0.5,0   l0.5,4.5c-0.4,0-0.7,0-1.1,0c-0.2,0-0.3,0-0.5,0C51.3,55.4,50.1,55.5,49,55.5L49,55.5z M84,22.7c-1.3,0-2.3,1-2.3,2.3   c0,1.3,1,2.3,2.3,2.3c1.3,0,2.3-1,2.3-2.3S85.3,22.7,84,22.7L84,22.7z M72.7,22.7c-1.3,0-2.3,1-2.3,2.3c0,1.3,1,2.3,2.3,2.3   c1.3,0,2.3-1,2.3-2.3S73.9,22.7,72.7,22.7L72.7,22.7z M61.3,22.7c-1.3,0-2.3,1-2.3,2.3c0,1.3,1,2.3,2.3,2.3c1.3,0,2.3-1,2.3-2.3   S62.6,22.7,61.3,22.7L61.3,22.7z"/>
</g>
</svg>