<svg xmlns="http://www.w3.org/2000/svg" width="25" height="26" viewBox="0 0 32 33" fill="none">
  <path d="M10.2917 25.7931C10.1988 25.886 10.1251 25.9963 10.0748 26.1177C10.0245 26.2391 9.99866 26.3692 9.99866 26.5006C9.99866 26.632 10.0245 26.7621 10.0748 26.8835C10.1251 27.0048 10.1988 27.1151 10.2917 27.2081C10.3846 27.301 10.4949 27.3747 10.6163 27.4249C10.7377 27.4752 10.8678 27.5011 10.9992 27.5011C11.1306 27.5011 11.2607 27.4752 11.3821 27.4249C11.5035 27.3747 11.6138 27.301 11.7067 27.2081L21.7067 17.2081C21.7997 17.1152 21.8734 17.0049 21.9238 16.8835C21.9741 16.7621 22 16.632 22 16.5006C22 16.3691 21.9741 16.239 21.9238 16.1176C21.8734 15.9962 21.7997 15.8859 21.7067 15.7931L11.7067 5.79306C11.5191 5.60542 11.2646 5.5 10.9992 5.5C10.7338 5.5 10.4794 5.60542 10.2917 5.79306C10.1041 5.9807 9.99866 6.23519 9.99866 6.50056C9.99866 6.76592 10.1041 7.02042 10.2917 7.20806L19.5855 16.5006L10.2917 25.7931Z" fill="black"/>
</svg>