<svg width="17" height="17" viewBox="0 0 17 17" fill="none" xmlns="http://www.w3.org/2000/svg">
<rect x="2.00098" y="1.99988" width="14" height="14" rx="3" fill="#4A4A4A"/>
<path d="M8.67478 2.18783C10.8109 2.18783 11.0622 2.1983 11.9051 2.23495C12.6852 2.2716 13.1093 2.40249 13.3921 2.51244C13.7638 2.65904 14.0308 2.83181 14.3135 3.1093C14.591 3.38678 14.769 3.6538 14.9104 4.03076C15.0203 4.31348 15.1512 4.73756 15.1879 5.51767C15.2245 6.3606 15.235 6.6119 15.235 8.74802C15.235 10.8841 15.2245 11.1355 15.1879 11.9784C15.1512 12.7585 15.0203 13.1826 14.9104 13.4653C14.7638 13.837 14.591 14.104 14.3135 14.3868C14.036 14.6695 13.769 14.8422 13.3921 14.9836C13.1093 15.0936 12.6852 15.2244 11.9051 15.2611C11.0622 15.2977 10.8109 15.3082 8.67478 15.3082C6.53866 15.3082 6.28735 15.2977 5.44443 15.2611C4.66432 15.2244 4.24024 15.0936 3.95752 14.9836C3.58579 14.837 3.31878 14.6642 3.03606 14.3868C2.75857 14.1093 2.58056 13.8422 2.4392 13.4653C2.32925 13.1826 2.19836 12.7585 2.16171 11.9784C2.12506 11.1355 2.11459 10.8841 2.11459 8.74802C2.11459 6.6119 2.12506 6.3606 2.16171 5.51767C2.19836 4.73756 2.32925 4.31348 2.4392 4.03076C2.5858 3.65903 2.75857 3.39202 3.03606 3.1093C3.31354 2.83181 3.58056 2.6538 3.95752 2.51244C4.24024 2.40249 4.66432 2.2716 5.44443 2.23495C6.28735 2.1983 6.53866 2.18783 8.67478 2.18783ZM8.67478 0.748047C6.50201 0.748047 6.22976 0.758518 5.37636 0.795167C4.52296 0.831816 3.94181 0.967941 3.43396 1.16689C2.9104 1.37108 2.46014 1.64333 2.01512 2.08836C1.57009 2.53338 1.29784 2.97841 1.09365 3.5072C0.894701 4.01505 0.758576 4.5962 0.721927 5.4496C0.685278 6.303 0.674805 6.57525 0.674805 8.74802C0.674805 10.9208 0.685278 11.193 0.721927 12.0464C0.758576 12.8998 0.894701 13.481 1.09365 13.9888C1.29784 14.5124 1.57009 14.9627 2.01512 15.4077C2.46014 15.8527 2.90517 16.125 3.43396 16.3292C3.94181 16.5281 4.52296 16.6642 5.37636 16.7009C6.22976 16.7375 6.50201 16.748 8.67478 16.748C10.8476 16.748 11.1198 16.7375 11.9732 16.7009C12.8266 16.6642 13.4078 16.5281 13.9156 16.3292C14.4444 16.125 14.8894 15.8527 15.3344 15.4077C15.7795 14.9627 16.0517 14.5176 16.2559 13.9888C16.4549 13.481 16.591 12.8998 16.6276 12.0464C16.6643 11.193 16.6748 10.9208 16.6748 8.74802C16.6748 6.57525 16.6643 6.303 16.6276 5.4496C16.591 4.5962 16.4549 4.01505 16.2559 3.5072C16.0517 2.98364 15.7795 2.53338 15.3344 2.08836C14.8894 1.64333 14.4444 1.37108 13.9156 1.16689C13.4078 0.967941 12.8266 0.831816 11.9732 0.795167C11.1198 0.758518 10.8476 0.748047 8.67478 0.748047Z" fill="#4A4A4A"/>
<path d="M9.11091 4.99988C6.8439 4.99988 5.00098 6.83757 5.00098 9.10981C5.00098 11.3821 6.83867 13.2198 9.11091 13.2198C11.3832 13.2198 13.2209 11.3821 13.2209 9.10981C13.2209 6.83757 11.3832 4.99988 9.11091 4.99988ZM9.11091 11.7747C7.63971 11.7747 6.446 10.581 6.446 9.10981C6.446 7.63861 7.63971 6.4449 9.11091 6.4449C10.5821 6.4449 11.7758 7.63861 11.7758 9.10981C11.7758 10.581 10.5821 11.7747 9.11091 11.7747Z" fill="white"/>
<path d="M14.9172 3.95799C14.9172 4.48678 14.4879 4.9161 13.9591 4.9161C13.4303 4.9161 13.001 4.48678 13.001 3.95799C13.001 3.4292 13.4303 2.99988 13.9591 2.99988C14.4879 2.99988 14.9172 3.4292 14.9172 3.95799Z" fill="white"/>
</svg>
